# This file uses centimeters as units for non-parametric coordinates.

mtllib top002.mtl
g default
v -100.000000 89.387642 0.000000
v 100.000000 89.387642 0.000000
v -98.535683 -95.000504 -98.535683
v -95.000504 -95.000504 -100.000000
v -95.000504 -98.535683 -98.535683
v -95.000504 -100.000000 -95.000504
v -98.535683 -98.535683 -95.000504
v -100.000000 -95.000504 -95.000504
v 98.535683 -95.000504 -98.535683
v 100.000000 -95.000504 -95.000504
v 98.535683 -98.535683 -95.000504
v 95.000504 -100.000000 -95.000504
v 95.000504 -98.535683 -98.535683
v 95.000504 -95.000504 -100.000000
v -98.535683 -98.535683 95.000504
v -95.000504 -100.000000 95.000504
v -95.000504 -98.535683 98.535683
v -95.000504 -95.000504 100.000000
v -98.535683 -95.000504 98.535683
v -100.000000 -95.000504 95.000504
v 98.535683 -98.535683 95.000504
v 100.000000 -95.000504 95.000504
v 98.535683 -95.000504 98.535683
v 95.000504 -95.000504 100.000000
v 95.000504 -98.535683 98.535683
v 95.000504 -100.000000 95.000504
v -98.553391 90.944557 155.997208
v -95.000504 89.598495 157.593674
v -95.000504 90.989227 159.827072
v -95.000504 93.608932 159.583511
v -98.553391 94.065948 157.545929
v -100.000000 94.579712 152.590576
v 98.553391 90.944557 155.997208
v 100.000000 94.579712 152.590576
v 98.553391 94.065948 157.545929
v 95.000504 93.608932 159.583511
v 95.000504 90.989227 159.827072
v 95.000504 89.598495 157.593674
v -98.553391 94.065948 -157.545929
v -95.000504 93.608932 -159.583511
v -95.000504 90.989227 -159.827072
v -95.000504 89.598495 -157.593674
v -98.553391 90.944557 -155.997208
v -100.000000 94.579712 -152.590576
v 98.553391 94.065948 -157.545929
v 100.000000 94.579712 -152.590576
v 98.553391 90.944557 -155.997208
v 95.000504 89.598495 -157.593674
v 95.000504 90.989227 -159.827072
v 95.000504 93.608932 -159.583511
v -95.000504 -100.000000 0.000000
v -98.535683 -98.535683 0.000000
v -100.000000 -95.000504 0.000000
v 95.000504 -100.000000 0.000000
v 98.535683 -98.535683 0.000000
v 100.000000 -95.000504 0.000000
v -100.000000 94.368896 95.000504
v -98.535683 90.846634 98.535683
v -95.000504 89.387665 100.000000
v 95.000504 89.387665 100.000000
v 98.535683 90.846634 98.535683
v 100.000000 94.368896 95.000504
v -95.000504 302.796661 0.000000
v -95.000504 301.296509 -3.009633
v -98.536346 300.010315 -2.159639
v -100.000000 296.983643 0.000000
v -98.536346 300.010315 2.159639
v -95.000504 301.296509 3.009633
v 98.536346 300.010315 -2.159639
v 95.000504 301.296509 -3.009633
v 95.000504 302.796661 0.000000
v 95.000504 301.296509 3.009633
v 98.536346 300.010315 2.159639
v 100.000000 296.983643 0.000000
v -100.000000 94.368896 -95.000504
v -98.535683 90.846634 -98.535683
v -95.000504 89.387665 -100.000000
v 100.000000 94.368896 -95.000504
v 98.535683 90.846634 -98.535683
v 95.000504 89.387665 -100.000000
v -97.885956 -97.885956 -97.885956
v 97.885956 -97.885956 -97.885956
v -97.885956 -97.885956 97.885956
v 97.885956 -97.885956 97.885956
v -97.899689 91.591164 158.612106
v 97.899689 91.591164 158.612106
v -97.899689 91.591164 -158.612106
v 97.899689 91.591164 -158.612106
v -97.886383 301.752075 0.000000
v 97.886383 301.752075 0.000000
vt 0.075085 0.299206
vt 0.304744 0.297016
vt 0.002550 0.982563
vt 0.287238 0.984237
vt 0.073283 0.075988
vt 0.286298 0.982822
vt 0.408842 0.500323
vt 0.306918 0.650323
vt 0.993660 0.836028
vt 0.305208 0.990529
vt 0.032338 0.497392
vt 0.555512 0.990304
vt 0.555204 0.647659
vt 0.306918 0.987865
vt 0.713776 0.510813
vt 0.144422 0.984106
vt 0.933596 0.510082
vt 0.286556 0.700018
vt 0.844568 0.637067
vt 0.829669 0.345874
vt 0.551607 0.354318
vt 0.002556 0.982557
vt 0.522236 0.083845
vt 0.144683 0.698474
vt 0.848753 0.637356
vt 0.725917 0.423658
vt 0.632001 0.155604
vt 0.143967 0.699893
vt 0.753496 0.834136
vt 0.143709 0.982686
vt 0.796304 0.180710
vt 0.858127 0.089979
vt 0.031481 0.608142
vt 0.143775 0.982692
vt 0.753494 0.832434
vt 0.144033 0.699887
vt 0.032389 0.611244
vt 0.074752 0.298873
vt 0.438349 0.503766
vt 0.302620 0.074142
vt 0.001606 0.983976
vt 0.287499 0.698604
vt 0.033304 0.494307
vt 0.697635 0.831345
vt 0.471082 0.195404
vt 0.629623 0.154268
vt 0.628888 0.150620
vt 0.468627 0.197100
vt 0.631724 0.151929
vt 0.509690 0.087275
vt 0.465690 0.333204
vt 0.515659 0.083396
vt 0.467262 0.331249
vt 0.517203 0.086250
vt 0.796146 0.178786
vt 0.800262 0.177140
vt 0.799881 0.179848
vt 0.855045 0.082237
vt 0.859780 0.086286
vt 0.853678 0.086115
vt 0.833841 0.349241
vt 0.836619 0.353019
vt 0.832103 0.349857
vt 0.832346 0.352319
vt 0.934907 0.512995
vt 0.930890 0.514587
vt 0.932088 0.517134
vt 0.935238 0.507080
vt 0.548423 0.361917
vt 0.548828 0.359059
vt 0.545385 0.361981
vt 0.548614 0.357567
vt 0.443519 0.516664
vt 0.444392 0.513135
vt 0.440531 0.512656
vt 0.440793 0.506234
vt 0.706857 0.183430
vt 0.699211 0.042210
vt 0.805741 0.301333
vt 0.980589 0.397507
vt 0.728532 0.423562
vt 0.683958 0.291932
vt 0.726320 0.422017
vt 0.728953 0.421185
vt 0.685081 0.291752
vt 0.710754 0.513583
vt 0.682148 0.733369
vt 0.710665 0.511838
vt 0.684634 0.732498
vt 0.713994 0.512316
vt 0.575771 0.299898
vt 0.385767 0.404934
vt 0.468938 0.193997
vt 0.630315 0.152191
vt 0.514011 0.085680
vt 0.467144 0.332818
vt 0.798902 0.178611
vt 0.856182 0.084788
vt 0.833945 0.351198
vt 0.933053 0.515703
vt 0.546787 0.360527
vt 0.442309 0.514596
vt 0.728167 0.422213
vt 0.684967 0.291773
vt 0.711731 0.512662
vt 0.682813 0.733018
vt 0.845568 0.838723
vt 0.002808 0.699758
vt 0.986427 0.399417
vt 0.861294 0.082300
vt 0.699338 0.038082
vt 0.508693 0.083193
vt 0.579201 0.299246
vt 0.845684 0.838457
vt 0.286292 0.982816
vt 0.286550 0.700024
vt 0.705974 0.186689
vt 0.002814 0.699764
vt 0.849117 0.082396
vt 0.699111 0.046362
vt 0.796867 0.176898
vt 0.707880 0.180249
vt 0.001867 0.698344
vt 0.630612 0.148129
vt 0.441412 0.518800
vt 0.379792 0.407120
vt 0.683641 0.736090
vt 0.933965 0.519261
vt 0.937795 0.835349
vt 0.937817 0.833114
vt 0.801872 0.299898
vt 0.993685 0.832600
vt 0.682771 0.290161
vt 0.697627 0.834241
vt 0.072961 0.076331
vt 0.391754 0.410244
vt 0.304422 0.297359
vt 0.809622 0.303519
vt 0.302953 0.074474
vt 0.803281 0.178370
vt 0.468052 0.333788
vt 0.470989 0.198044
vt 0.731147 0.422837
vt 0.553495 0.987865
vt 0.707582 0.513076
vt 0.304900 0.647883
vt 0.443236 0.508616
vt 0.545021 0.364188
vt 0.553495 0.650323
vt 0.835658 0.354112
vt 0.571527 0.302770
vt 0.407985 0.611074
vt 0.975870 0.396705
vt 0.407018 0.614158
vt 0.407933 0.497221
vt 0.546447 0.359544
vt 0.936906 0.504002
vt 0.837177 0.351459
vn -0.007473 -0.999863 -0.014767
vn -0.004694 -0.924086 -0.382156
vn 0.004694 -0.924086 -0.382156
vn 0.007473 -0.999863 -0.014767
vn -0.004694 -0.382155 -0.924086
vn -0.007546 -0.007743 -0.999942
vn 0.007546 -0.007743 -0.999942
vn 0.004694 -0.382155 -0.924086
vn 0.999861 -0.007594 -0.014821
vn 0.924089 -0.004753 -0.382149
vn 0.923880 0.000000 -0.382683
vn 0.999995 -0.000908 -0.002981
vn 0.382140 -0.004816 -0.924092
vn 0.009317 0.000000 -0.999957
vn 0.382682 0.000000 -0.923880
vn 0.381633 -0.924268 -0.009261
vn 0.382683 -0.923880 0.000000
vn 0.007566 -0.999971 0.000000
vn 0.924267 -0.381634 -0.009261
vn 0.999970 -0.007690 0.000000
vn 0.923879 -0.382684 0.000000
vn -0.007473 -0.999863 0.014767
vn -0.381633 -0.924268 0.009261
vn -0.382683 -0.923880 0.000000
vn -0.007566 -0.999971 0.000000
vn -0.924267 -0.381634 0.009261
vn -0.999861 -0.007594 0.014821
vn -0.999970 -0.007690 0.000000
vn -0.923879 -0.382684 0.000000
vn -0.007546 -0.007743 0.999942
vn -0.004694 -0.382155 0.924086
vn 0.004694 -0.382155 0.924086
vn 0.007546 -0.007743 0.999942
vn -0.004694 -0.924086 0.382156
vn 0.007473 -0.999863 0.014767
vn 0.004694 -0.924086 0.382156
vn -0.924089 -0.004753 0.382149
vn -0.923880 0.000000 0.382683
vn -0.999995 -0.000908 0.002981
vn -0.382140 -0.004816 0.924092
vn -0.009317 0.000000 0.999957
vn -0.382682 0.000000 0.923880
vn 0.382140 -0.004816 0.924092
vn 0.382682 0.000000 0.923880
vn 0.009317 0.000000 0.999957
vn 0.924089 -0.004753 0.382149
vn 0.999861 -0.007594 0.014821
vn 0.999995 -0.000908 0.002981
vn 0.923880 0.000000 0.382683
vn -0.005456 0.597759 0.801657
vn -0.006419 0.093968 0.995555
vn 0.006419 0.093968 0.995555
vn 0.005456 0.597759 0.801657
vn -0.006413 -0.849600 0.527388
vn -0.005608 -0.999626 0.026766
vn 0.005608 -0.999626 0.026766
vn 0.006413 -0.849600 0.527388
vn -0.999041 0.018594 0.039653
vn -0.929568 0.215628 0.299013
vn -0.927646 0.228718 0.295231
vn -0.999379 0.035241 0.000000
vn -0.368313 0.558274 0.743422
vn -0.006606 0.606502 0.795055
vn -0.368014 0.562275 0.740549
vn 0.368313 0.558274 0.743422
vn 0.368014 0.562275 0.740549
vn 0.006606 0.606502 0.795055
vn 0.929568 0.215628 0.299013
vn 0.999041 0.018594 0.039653
vn 0.999379 0.035241 0.000000
vn 0.927646 0.228718 0.295231
vn -0.005456 0.597759 -0.801657
vn -0.368313 0.558274 -0.743422
vn -0.368014 0.562275 -0.740549
vn -0.006606 0.606502 -0.795055
vn -0.929568 0.215628 -0.299013
vn -0.999041 0.018594 -0.039653
vn -0.927646 0.228718 -0.295231
vn -0.005608 -0.999626 -0.026766
vn -0.006413 -0.849600 -0.527388
vn 0.006413 -0.849600 -0.527388
vn 0.005608 -0.999626 -0.026766
vn -0.006419 0.093968 -0.995555
vn 0.005456 0.597759 -0.801657
vn 0.006419 0.093968 -0.995555
vn -0.936459 -0.349215 -0.033056
vn -0.926614 -0.376014 -0.000866
vn -0.999995 -0.000908 -0.002981
vn -0.370666 -0.928701 -0.011031
vn -0.008905 -0.999954 -0.003637
vn -0.368883 -0.929473 -0.002438
vn 0.999041 0.018594 -0.039653
vn 0.929568 0.215628 -0.299013
vn 0.927646 0.228718 -0.295231
vn 0.368313 0.558274 -0.743422
vn 0.006606 0.606502 -0.795055
vn 0.368014 0.562275 -0.740549
vn -0.005160 0.894623 -0.446791
vn 0.005160 0.894623 -0.446791
vn -0.005160 0.894623 0.446791
vn 0.005160 0.894623 0.446791
vn 1.000000 0.000000 0.000000
vn -1.000000 0.000000 0.000000
vn -0.999861 -0.007594 -0.014821
vn -0.009317 0.000000 -0.999957
vn -0.008905 -0.999954 0.003637
vn 0.008905 -0.999954 0.003637
vn 0.008905 -0.999954 -0.003637
vn -0.924267 -0.381634 -0.009261
vn -0.381633 -0.924268 -0.009261
vn 0.924267 -0.381634 0.009261
vn 0.381633 -0.924268 0.009261
vn -0.370666 -0.928701 0.011031
vn -0.368883 -0.929473 0.002438
vn -0.936459 -0.349215 0.033056
vn -0.926614 -0.376014 0.000866
vn 0.936459 -0.349215 0.033056
vn 0.926614 -0.376014 0.000866
vn 0.370666 -0.928701 0.011031
vn 0.368883 -0.929473 0.002438
vn -0.382140 -0.004816 -0.924092
vn -0.382682 0.000000 -0.923880
vn -0.924089 -0.004753 -0.382149
vn -0.923880 0.000000 -0.382683
vn 0.370666 -0.928701 -0.011031
vn 0.368883 -0.929473 -0.002438
vn 0.936459 -0.349215 -0.033056
vn 0.926614 -0.376014 -0.000866
vn -0.887918 -0.325269 -0.325270
vn -0.325269 -0.325270 -0.887918
vn -0.325270 -0.887918 -0.325269
vn 0.325270 -0.325271 -0.887918
vn 0.887918 -0.325270 -0.325271
vn 0.325271 -0.887918 -0.325270
vn -0.887918 -0.325270 0.325271
vn -0.325271 -0.887918 0.325270
vn -0.325270 -0.325271 0.887918
vn 0.325270 -0.887918 0.325269
vn 0.887918 -0.325269 0.325270
vn 0.325269 -0.325270 0.887918
vn -0.954498 -0.132546 0.267144
vn -0.419996 -0.815048 0.399124
vn -0.420148 0.175005 0.890421
vn 0.419996 -0.815048 0.399123
vn 0.954498 -0.132545 0.267144
vn 0.420148 0.175005 0.890421
vn -0.954498 -0.132545 -0.267144
vn -0.420148 0.175005 -0.890421
vn -0.419996 -0.815048 -0.399123
vn 0.420148 0.175005 -0.890421
vn 0.954498 -0.132546 -0.267144
vn 0.419996 -0.815048 -0.399124
vn -0.355849 0.811214 0.464007
vn -0.355849 0.811214 -0.464008
vn -0.914216 0.405227 0.000000
vn 0.914216 0.405227 0.000000
vn 0.355849 0.811214 -0.464007
vn 0.355849 0.811214 0.464008
s 1
g pCube1
usemtl initialShadingGroup
f 6/124/1 5/47/2 13/54/3 12/23/4
s 2
f 5/48/5 4/142/6 14/141/7 13/53/8
s 3
f 10/112/9 9/50/10 79/92/11 78/126/12
s 2
f 9/51/13 14/141/7 80/136/14 79/92/15
s 1
f 12/23/4 11/52/16 55/78/17 54/120/18
s 3
f 11/52/19 10/112/9 56/111/20 55/78/21
s 1
f 16/121/22 15/55/23 52/77/24 51/122/25
s 5
f 15/55/26 20/31/27 53/117/28 52/77/29
s 6
f 18/140/30 17/56/31 25/60/32 24/32/33
s 1
f 17/56/34 16/121/22 26/119/35 25/60/36
s 5
f 20/31/27 19/57/37 58/79/38 57/131/39
s 6
f 19/57/40 18/140/30 59/138/41 58/79/42
f 24/32/33 23/59/43 61/80/44 60/153/45
s 3
f 23/59/46 22/110/47 62/109/48 61/80/49
s 8
f 30/150/50 29/62/51 37/68/52 36/17/53
s 9
f 29/62/54 28/158/55 38/157/56 37/68/57
s 5
f 32/20/58 31/63/59 67/85/60 66/133/61
s 8
f 31/64/62 30/150/50 68/143/63 67/84/64
f 36/17/53 35/66/65 73/90/66 72/15/67
s 3
f 35/67/68 34/128/69 74/127/70 73/89/71
s 12
f 40/148/72 39/69/73 65/83/74 64/26/75
s 5
f 39/70/76 44/21/77 66/133/61 65/82/78
s 14
f 42/156/79 41/71/80 49/76/81 48/39/82
s 12
f 41/71/83 40/148/72 50/147/84 49/76/85
s 5
f 44/21/77 43/72/86 76/91/87 75/113/88
s 14
f 43/72/89 42/156/79 77/151/90 76/91/91
s 3
f 46/125/92 45/73/93 69/87/94 74/127/70
s 12
f 45/74/95 50/147/84 70/145/96 69/86/97
f 64/26/75 63/81/98 71/88/99 70/145/96
s 8
f 63/81/100 68/143/63 72/15/67 71/88/101
s 1
f 51/16/25 54/24/18 26/42/35 16/4/22
s 8
f 30/8/50 36/149/53 72/144/67 68/14/63
s 3
f 2/107/102 74/25/70 34/9/69 62/129/48
s 5
f 66/19/61 1/114/103 57/29/39 32/134/58
f 44/132/77 75/130/88 1/114/103 66/19/61
s 1
f 6/41/1 12/123/4 54/24/18 51/16/25
s 3
f 78/35/12 46/44/92 74/25/70 2/107/102
s 12
f 64/146/75 70/13/96 50/12/84 40/10/72
s 5
f 75/22/88 8/118/104 53/28/28 1/30/103
f 57/115/39 1/30/103 53/28/28 20/116/27
s 6
f 18/5/30 24/139/33 60/137/45 59/38/41
s 3
f 56/34/20 2/36/102 62/18/48 22/6/47
f 10/3/9 78/108/12 2/36/102 56/34/20
s 2
f 77/135/105 80/40/14 14/2/7 4/1/6
s 9
f 38/43/56 28/7/55 59/154/106 60/33/107
s 14
f 42/11/79 48/155/82 80/152/108 77/37/90
s 5
f 8/27/104 7/49/109 52/77/29 53/117/28
s 1
f 7/49/110 6/124/1 51/122/25 52/77/24
s 3
f 22/110/47 21/58/111 55/78/21 56/111/20
s 1
f 21/58/112 26/119/35 54/120/18 55/78/17
s 9
f 28/158/55 27/61/113 58/79/114 59/138/106
s 5
f 27/61/115 32/20/58 57/131/39 58/79/116
s 3
f 34/128/69 33/65/117 61/80/118 62/109/48
s 9
f 33/65/119 38/157/56 60/153/107 61/80/120
s 2
f 4/142/6 3/45/121 76/91/122 77/151/105
s 5
f 3/46/123 8/27/104 75/113/88 76/91/124
s 14
f 48/39/82 47/75/125 79/92/126 80/136/108
s 3
f 47/75/127 46/125/92 78/126/12 79/92/128
s 5
f 7/49/109 8/27/104 3/46/123 81/94/129
s 2
f 3/45/121 4/142/6 5/48/5 81/93/130
s 1
f 5/47/2 6/124/1 7/49/110 81/94/131
s 2
f 13/53/8 14/141/7 9/51/13 82/96/132
s 3
f 9/50/10 10/112/9 11/52/19 82/95/133
s 1
f 11/52/16 12/23/4 13/54/3 82/95/134
s 5
f 19/57/37 20/31/27 15/55/26 83/97/135
s 1
f 15/55/23 16/121/22 17/56/34 83/97/136
s 6
f 17/56/31 18/140/30 19/57/40 83/97/137
s 1
f 25/60/36 26/119/35 21/58/112 84/98/138
s 3
f 21/58/111 22/110/47 23/59/46 84/98/139
s 6
f 23/59/43 24/32/33 25/60/32 84/98/140
s 5
f 31/63/59 32/20/58 27/61/115 85/99/141
s 9
f 27/61/113 28/158/55 29/62/54 85/99/142
s 8
f 29/62/51 30/150/50 31/64/62 85/99/143
s 9
f 37/68/57 38/157/56 33/65/119 86/100/144
s 3
f 33/65/117 34/128/69 35/67/68 86/100/145
s 8
f 35/66/65 36/17/53 37/68/52 86/100/146
s 5
f 43/72/86 44/21/77 39/70/76 87/101/147
s 12
f 39/69/73 40/148/72 41/71/83 87/101/148
s 14
f 41/71/80 42/156/79 43/72/89 87/101/149
s 12
f 49/76/85 50/147/84 45/74/95 88/102/150
s 3
f 45/73/93 46/125/92 47/75/127 88/102/151
s 14
f 47/75/125 48/39/82 49/76/81 88/102/152
s 8
f 67/84/64 68/143/63 63/81/100 89/103/153
s 12
f 63/81/98 64/26/75 65/83/74 89/103/154
s 5
f 65/82/78 66/133/61 67/85/60 89/104/155
s 3
f 73/89/71 74/127/70 69/87/94 90/106/156
s 12
f 69/86/97 70/145/96 71/88/99 90/105/157
s 8
f 71/88/101 72/15/67 73/90/66 90/105/158
